<?xml version="1.0" encoding="utf-8"?>
<!-- Generator: Adobe Illustrator 25.0.1, SVG Export Plug-In . SVG Version: 6.00 Build 0)  -->
<svg version="1.1" id="Layer_1" xmlns="http://www.w3.org/2000/svg" xmlns:xlink="http://www.w3.org/1999/xlink" x="0px" y="0px"
	 viewBox="0 0 24 24" style="enable-background:new 0 0 24 24;" xml:space="preserve">
<style type="text/css">
	.st0{fill:#C8C8C8;}
</style>
<path class="st0" d="M16.51,22.63c3.73-0.61,6.24-3.81,6.24-8.21c0-4.74-6.78-10.91-7.07-11.17c-0.15-0.13-0.35-0.21-0.55-0.19
	c-0.2,0.01-0.39,0.1-0.52,0.25l-1.48,1.69L9.82,1.49c-0.28-0.3-0.76-0.32-1.06-0.04C8.46,1.74,1.25,8.5,1.25,13.67
	c0,5.35,3.3,9.08,8.02,9.08h0.39h5.51h0.32c0.13,0,0.24-0.02,0.36-0.03c0.08-0.01,0.16-0.01,0.24-0.02
	C16.24,22.68,16.38,22.66,16.51,22.63z M2.75,13.67c0-3.78,4.86-8.96,6.5-10.6l3.36,3.57c0.15,0.15,0.34,0.22,0.56,0.24
	c0.21,0,0.41-0.1,0.55-0.26l1.51-1.72c1.58,1.54,6.02,6.17,6.02,9.53c0,1.92-0.57,3.56-1.56,4.75c0.03-0.21,0.06-0.41,0.06-0.63
	c0-2.21-2.75-5.35-3.31-5.96l-0.39-0.43c-0.28-0.31-0.82-0.31-1.11,0l-0.39,0.43c-0.06,0.06-0.45,0.49-0.94,1.12
	c-1.25-1.96-2.86-3.66-2.88-3.67l-0.52-0.55c-0.14-0.15-0.34-0.23-0.54-0.23c0,0,0,0,0,0c-0.21,0-0.4,0.08-0.54,0.23L8.6,10.03
	c-0.44,0.47-4.35,4.67-4.35,7.52c0,0.51,0.09,0.98,0.21,1.43C3.38,17.66,2.75,15.83,2.75,13.67z M9.67,21.25
	c-2.34,0-3.92-1.48-3.92-3.69c0-1.84,2.55-5.02,3.92-6.47c0.21,0.23,2.12,2.27,3.21,4.33c0.12,0.23,0.36,0.38,0.62,0.4
	c0.26,0.01,0.51-0.1,0.66-0.32c0.54-0.77,1.08-1.41,1.35-1.71c1.04,1.18,2.75,3.46,2.75,4.76c0,1.35-0.78,2.32-1.99,2.61
	c-0.35,0.06-0.71,0.1-1.08,0.1H9.67z"/>
</svg>
