<?xml version="1.0" encoding="utf-8"?>
<!-- Generator: Adobe Illustrator 25.0.1, SVG Export Plug-In . SVG Version: 6.00 Build 0)  -->
<svg version="1.1" id="Layer_1" xmlns="http://www.w3.org/2000/svg" xmlns:xlink="http://www.w3.org/1999/xlink" x="0px" y="0px"
	 viewBox="0 0 24 24" style="enable-background:new 0 0 24 24;" xml:space="preserve">
<style type="text/css">
	.st0{fill:#C8C8C8;}
</style>
<path class="st0" d="M12,1C5.93,1,1,5.93,1,12s4.93,11,11,11s11-4.93,11-11S18.07,1,12,1z M21.46,11.25h-4.48
	c-0.08-2.66-0.58-5.13-1.45-7.03c-0.23-0.52-0.48-0.93-0.72-1.3C18.45,4.06,21.15,7.32,21.46,11.25z M12,21.5
	c-0.53,0-1.38-0.62-2.17-2.34c-0.77-1.69-1.23-3.99-1.31-6.41h6.97c-0.08,2.42-0.55,4.72-1.31,6.41C13.38,20.88,12.53,21.5,12,21.5z
	 M8.52,11.25C8.6,8.83,9.06,6.53,9.83,4.84C10.62,3.12,11.47,2.5,12,2.5s1.38,0.62,2.17,2.34c0.77,1.68,1.23,3.99,1.31,6.41H8.52z
	 M9.19,2.93C8.94,3.29,8.7,3.71,8.46,4.22C7.6,6.12,7.1,8.59,7.02,11.25H2.54C2.85,7.32,5.55,4.06,9.19,2.93z M2.54,12.75h4.48
	c0.08,2.66,0.58,5.13,1.45,7.03c0.23,0.52,0.48,0.93,0.72,1.3C5.55,19.94,2.85,16.68,2.54,12.75z M14.81,21.07
	c0.24-0.37,0.49-0.78,0.72-1.3c0.86-1.9,1.37-4.37,1.45-7.03h4.48C21.15,16.68,18.45,19.94,14.81,21.07z"/>
</svg>
