<?xml version="1.0" encoding="utf-8"?>
<!-- Generator: Adobe Illustrator 25.0.1, SVG Export Plug-In . SVG Version: 6.00 Build 0)  -->
<svg version="1.1" id="Layer_1" xmlns="http://www.w3.org/2000/svg" xmlns:xlink="http://www.w3.org/1999/xlink" x="0px" y="0px"
	 viewBox="0 0 24 24" style="enable-background:new 0 0 24 24;" xml:space="preserve">
<style type="text/css">
	.st0{fill:#C8C8C8;}
</style>
<g>
	<path class="st0" d="M12,1C5.93,1,1,5.93,1,12s4.93,11,11,11s11-4.93,11-11S18.07,1,12,1z M12,21.5c-5.24,0-9.5-4.26-9.5-9.5
		S6.76,2.5,12,2.5s9.5,4.26,9.5,9.5S17.24,21.5,12,21.5z"/>
	<path class="st0" d="M12.75,11.63V5.5c0-0.41-0.34-0.75-0.75-0.75s-0.75,0.34-0.75,0.75v6.88l4.3,3.22
		c0.13,0.1,0.29,0.15,0.45,0.15c0.23,0,0.45-0.1,0.6-0.3c0.25-0.33,0.18-0.8-0.15-1.05L12.75,11.63z"/>
</g>
</svg>
